<svg xmlns="http://www.w3.org/2000/svg" viewBox="0 0 512 512" fill="#a855f7">
  <path d="M256 96c-53.02 0-96 42.98-96 96 0 14.16 3.102 27.57 8.578 39.71C185.5 244.7 205.2 256 227.4 256H284.6C306.8 256 326.5 244.7 343.4 231.7 348.9 219.6 352 206.2 352 192 352 138.1 309 96 256 96zM107.9 262.9C113.1 254.8 119.1 247.4 126.7 240.8c-1.246 1.789-2.158 3.85-3.016 5.752C125.4 252.9 128 259.5 132.9 264.4l11.15 11.15c8.809 8.809 10.38 22.52 3.783 33.05C134.2 330.6 128 353.8 128 378.4c0 11.28 9.234 20.52 20.52 20.52c11.29 0 20.52-9.237 20.52-20.52 0-17.22 4.473-33.48 12.3-47.5 7.988-14.35 6.033-32.07-4.705-44.26l-5.275-5.275C166.2 302.8 160 326.9 160 352c0 105.1 85.76 192 192 192 11.29 0 20.52-9.233 20.52-20.52 0-11.28-9.237-20.52-20.52-20.52C265.6 502.9 192 429.3 192 352c0-15.6 2.906-30.44 7.574-44.52l-5.01-5.01c-11.4-11.4-13.5-29.27-5.018-43.04 10.05-16.26 4.396-37.75-12.92-47.06C120.1 185.8 80 131.4 80 67.26 80 55.98 70.77 46.74 59.48 46.74c-11.29 0-20.52 9.233-20.52 20.52 0 78.92 52.16 145.7 123.7 168.7C132.7 247.5 118.3 261.8 105.7 277.9 90.1 297.1 80 323.1 80 352c0 141.2 114.8 256 256 256 11.29 0 20.52-9.237 20.52-20.52 0-11.28-9.237-20.52-20.52-20.52C212.6 566.9 110.1 470.5 103.8 348.7c-10.9 18.36-17.84 39.5-17.84 62.08 0 11.28 9.233 20.52 20.52 20.52 11.29 0 20.52-9.237 20.52-20.52 0-15.77 4.822-30.37 12.77-42.66 5.359-8.268 5.881-18.64 1.379-27.34C114.8 311.5 107.9 290.1 107.9 262.9z"/>
  <path d="M256 128c-35.29 0-64 28.71-64 64 0 17.44 7.076 33.18 18.43 44.73 5.338 5.449 12.8 8.486 20.49 8.486H281.1c7.691 0 15.15-3.037 20.49-8.486C313.1 225.2 320 209.4 320 192 320 156.7 291.3 128 256 128zM448 352c0-70.58-57.41-128-128-128-11.28 0-20.52 9.236-20.52 20.52 0 11.29 9.239 20.52 20.52 20.52C373.8 265 416 307.3 416 352s-42.21 87.04-94.48 87.04C310.2 439 300.1 448.3 300.1 459.6c0 11.28 9.239 20.52 20.52 20.52C391.6 480 448 422.6 448 352z"/>
  <path d="M403.9 46.74C392.6 46.74 383.4 55.97 383.4 67.26c0 11.28 9.223 20.52 20.51 20.52 11.29 0 20.52-9.236 20.52-20.52C424.4 55.97 415.2 46.74 403.9 46.74z"/>
  <circle cx="256" cy="192" r="32" fill="#7e22ce" />
  <circle cx="256" cy="192" r="16" fill="#4c1d95" />
</svg> 